<?xml version="1.0" standalone="no"?>
<!DOCTYPE svg PUBLIC "-//W3C//DTD SVG 20010904//EN"
 "http://www.w3.org/TR/2001/REC-SVG-20010904/DTD/svg10.dtd">
<svg version="1.0" xmlns="http://www.w3.org/2000/svg"
 width="891.000000pt" height="280.000000pt" viewBox="0 0 891.000000 280.000000"
 preserveAspectRatio="xMidYMid meet">

<g transform="translate(0.000000,280.000000) scale(0.100000,-0.100000)"
fill="#ffffff" stroke="none">
<path d="M1995 2523 c-492 -61 -899 -446 -986 -933 -17 -94 -17 -325 0 -405
76 -365 292 -654 611 -815 91 -46 249 -96 345 -110 147 -21 355 -7 484 32 41
12 36 13 -75 9 -68 -2 -149 2 -189 9 -436 77 -747 426 -772 866 -12 207 58
432 182 595 117 152 275 245 450 267 l60 7 7 45 c45 266 68 412 68 425 0 12
-14 15 -77 14 -43 -1 -91 -4 -108 -6z"/>
<path d="M3915 2061 c-111 -30 -194 -94 -214 -168 -24 -85 -7 -148 53 -201 48
-42 87 -58 231 -93 220 -55 255 -74 255 -141 0 -39 -53 -92 -105 -107 -71 -20
-184 -14 -240 13 -58 27 -78 47 -100 99 l-15 37 -71 0 -70 0 7 -37 c11 -61 30
-99 73 -146 150 -162 525 -147 639 26 37 55 43 147 13 204 -43 85 -109 120
-344 181 -159 41 -193 62 -183 114 8 40 19 52 64 74 48 22 163 23 213 1 34
-15 92 -71 101 -97 3 -9 18 -9 66 0 34 7 65 17 68 21 10 16 -40 100 -81 136
-68 61 -135 85 -239 89 -50 2 -104 0 -121 -5z"/>
<path d="M4500 1636 l0 -416 75 0 75 0 0 180 0 180 84 0 84 0 112 -180 112
-180 80 0 c70 0 79 2 74 16 -4 9 -51 88 -106 175 -55 88 -100 163 -100 169 0
5 17 18 38 29 81 42 122 113 122 211 0 92 -42 160 -130 206 -31 17 -64 19
-277 22 l-243 3 0 -415z m450 269 c38 -20 63 -68 55 -105 -8 -35 -57 -80 -88
-81 -12 0 -62 -3 -111 -5 -48 -3 -104 -3 -122 1 l-34 6 0 93 c0 51 3 96 7 99
3 4 64 7 135 7 96 0 137 -4 158 -15z"/>
<path d="M5332 1638 l3 -413 220 0 220 1 67 31 c121 56 200 154 227 281 36
171 -27 350 -152 436 -95 65 -118 69 -365 74 l-222 4 2 -414z m416 266 c69
-23 115 -64 149 -132 24 -48 28 -69 28 -137 0 -124 -53 -213 -152 -257 -55
-24 -255 -37 -278 -18 -13 11 -15 52 -15 280 0 146 3 270 7 273 14 14 210 7
261 -9z"/>
<path d="M6198 1645 c-2 -223 -1 -410 0 -415 2 -6 106 -10 283 -10 l280 0 -3
68 -3 67 -202 3 -203 2 0 345 0 345 -75 0 -75 0 -2 -405z"/>
<path d="M7570 1635 l0 -415 70 0 70 0 0 30 c0 36 3 37 43 6 18 -14 61 -32 95
-42 106 -29 227 1 302 76 63 63 84 121 85 230 0 110 -21 169 -82 232 -73 75
-218 108 -322 73 l-51 -17 0 -59 c0 -32 2 -59 4 -59 2 0 20 7 39 15 68 28 167
15 215 -29 92 -82 80 -257 -21 -324 -36 -24 -50 -27 -116 -26 -116 1 -202 50
-286 160 -44 57 -45 78 -2 37 17 -16 50 -43 71 -59 l40 -29 -7 25 c-4 14 -7
152 -7 308 l0 282 -70 0 -70 0 0 -415z"/>
<path d="M2954 1887 c-198 -172 -551 -478 -583 -504 l-26 -22 461 -1 462 0 4
48 c11 123 -25 320 -83 456 -31 74 -74 146 -87 146 -4 0 -70 -55 -148 -123z"/>
<path d="M7015 1831 c-87 -22 -150 -73 -193 -156 -24 -45 -27 -61 -27 -155 0
-115 12 -152 76 -224 68 -78 204 -113 312 -82 l57 17 0 60 c0 54 -2 60 -17 54
-158 -65 -292 14 -293 173 0 34 6 78 14 96 67 160 320 133 453 -47 24 -33 41
-62 39 -65 -3 -2 -31 19 -63 47 -63 56 -78 63 -69 29 3 -13 6 -98 6 -190 l0
-168 70 0 70 0 0 299 c0 338 7 311 -86 311 -53 0 -54 0 -54 -30 0 -16 -2 -30
-5 -30 -3 0 -30 14 -61 32 -46 25 -69 32 -128 34 -39 2 -84 0 -101 -5z"/>
<path d="M3640 885 l0 -105 68 2 67 1 -55 6 -55 6 -3 98 c-4 132 -22 125 -22
-8z"/>
<path d="M3990 884 c0 -90 2 -105 14 -95 10 8 12 24 9 52 -10 68 51 105 97 59
24 -24 26 -58 4 -89 -13 -18 -24 -22 -50 -19 -18 2 -30 0 -28 -4 10 -15 71 -8
87 10 24 26 22 87 -3 112 -21 21 -74 27 -85 10 -13 -21 -25 -9 -25 24 0 19 -4
38 -10 41 -6 4 -10 -32 -10 -101z"/>
<path d="M4672 967 c-1 -15 -9 -30 -17 -33 -14 -6 -14 -8 -1 -18 10 -7 16 -32
18 -71 3 -59 4 -60 33 -62 28 -2 28 -1 5 5 -23 7 -25 13 -25 67 0 55 2 60 25
66 l25 7 -27 1 c-22 1 -27 6 -31 34 -3 29 -4 30 -5 4z"/>
<path d="M5282 978 c-7 -7 -12 -20 -12 -29 0 -10 -6 -20 -12 -22 -10 -4 -10
-6 0 -6 8 -1 12 -22 12 -72 0 -44 4 -68 10 -64 6 3 10 35 10 70 0 52 3 64 18
68 16 4 16 5 0 6 -11 1 -18 9 -18 21 0 10 8 24 18 29 14 9 14 10 2 11 -9 0
-21 -5 -28 -12z"/>
<path d="M5722 974 c-44 -31 -21 -76 51 -95 51 -13 67 -25 67 -50 0 -43 -87
-53 -125 -14 -16 16 -25 19 -25 10 0 -42 108 -61 150 -27 37 30 21 66 -37 87
-71 25 -78 30 -78 55 0 37 49 48 87 20 37 -27 49 -20 12 9 -32 25 -71 27 -102
5z"/>
<path d="M6778 979 c-21 -12 -23 -41 -6 -68 9 -15 7 -24 -10 -46 -27 -34 -27
-47 -4 -68 21 -19 74 -22 104 -6 14 8 23 8 31 0 16 -16 31 -13 17 4 -7 9 -9
26 -5 46 5 22 4 29 -4 25 -6 -4 -11 -14 -11 -22 0 -20 -13 -17 -38 9 -27 29
-27 39 -2 62 25 23 26 51 1 65 -25 13 -51 12 -73 -1z m56 -5 c23 -9 20 -51 -5
-64 -16 -9 -25 -8 -40 6 -39 36 -7 78 45 58z m4 -127 c37 -38 29 -57 -23 -57
-52 0 -71 36 -38 72 21 24 24 23 61 -15z"/>
<path d="M7020 885 c0 -63 4 -105 10 -105 6 0 10 23 10 50 0 49 1 50 30 50 26
0 36 -8 62 -50 17 -27 35 -50 40 -50 10 0 5 10 -24 52 -23 34 -23 50 2 66 27
16 26 57 -2 76 -14 10 -44 16 -75 16 l-53 0 0 -105z m131 69 c23 -27 -1 -49
-60 -52 l-51 -3 0 35 0 36 49 0 c32 0 53 -5 62 -16z"/>
<path d="M8113 885 c1 -60 2 -85 4 -55 5 60 24 90 58 90 33 0 49 -26 56 -89
l6 -56 2 61 c1 48 -3 65 -17 77 -22 20 -63 22 -80 5 -13 -13 -19 -3 -25 47 -2
17 -4 -19 -4 -80z"/>
<path d="M3814 909 c-25 -28 -25 -96 1 -115 23 -17 77 -18 93 -2 10 10 15 10
22 -2 7 -10 10 11 10 65 0 48 -4 75 -9 66 -6 -10 -13 -11 -29 -2 -32 17 -67
13 -88 -10z m90 -5 c45 -45 21 -114 -40 -114 -30 0 -37 5 -48 32 -8 18 -11 39
-8 47 16 48 66 66 96 35z"/>
<path d="M4200 910 c-12 -12 -20 -33 -20 -55 0 -46 29 -75 74 -75 39 0 76 37
76 75 0 12 -9 34 -21 49 -26 33 -79 36 -109 6z m92 -7 c22 -20 24 -76 2 -97
-23 -24 -70 -20 -88 6 -22 31 -20 64 4 88 24 24 57 26 82 3z"/>
<path d="M4372 854 c1 -66 2 -70 5 -24 4 58 15 77 48 90 16 7 17 9 3 9 -9 1
-20 -4 -23 -9 -5 -8 -11 -7 -21 1 -12 10 -14 -1 -12 -67z"/>
<path d="M4480 910 c-26 -26 -27 -90 -2 -113 22 -20 72 -22 91 -4 11 10 14 10
18 0 12 -34 23 -5 23 62 0 67 -11 96 -23 63 -4 -10 -7 -10 -18 0 -20 18 -67
14 -89 -8z m92 -7 c22 -20 23 -70 1 -95 -23 -25 -68 -23 -87 4 -22 31 -20 64
4 88 24 24 57 26 82 3z"/>
<path d="M4780 912 c-28 -23 -31 -83 -5 -112 24 -26 85 -27 108 -2 26 28 22
97 -5 116 -30 21 -71 20 -98 -2z m88 -8 c43 -30 17 -114 -35 -114 -37 0 -63
27 -63 66 0 34 28 64 60 64 9 0 26 -7 38 -16z"/>
<path d="M4940 855 c0 -91 17 -100 22 -12 4 67 1 87 -13 87 -5 0 -9 -34 -9
-75z"/>
<path d="M4975 920 c-7 -12 2 -12 30 0 19 8 19 9 -2 9 -12 1 -25 -3 -28 -9z"/>
<path d="M5040 925 c0 -6 12 -38 27 -73 22 -54 25 -67 16 -97 -23 -73 4 -31
44 70 22 58 37 105 33 105 -5 0 -17 -23 -28 -52 -11 -29 -24 -54 -29 -55 -6
-2 -18 18 -28 44 -18 48 -35 76 -35 58z"/>
<path d="M5360 910 c-24 -24 -26 -77 -4 -108 23 -33 86 -31 113 4 28 35 26 69
-4 99 -30 31 -77 33 -105 5z m92 -7 c23 -26 26 -54 11 -85 -27 -56 -113 -26
-113 39 0 51 70 82 102 46z"/>
<path d="M5532 850 c1 -66 2 -68 5 -20 4 58 15 77 48 90 15 6 10 8 -17 7 l-38
-2 2 -75z"/>
<path d="M5900 872 c0 -68 18 -93 66 -91 27 2 27 2 4 6 -41 8 -50 22 -50 79 0
29 -4 56 -10 59 -6 4 -10 -16 -10 -53z"/>
<path d="M6020 879 c0 -28 -4 -59 -10 -69 -7 -13 -6 -19 5 -24 12 -4 15 7 15
69 0 41 -2 75 -5 75 -3 0 -5 -23 -5 -51z"/>
<path d="M6080 853 c0 -42 4 -73 10 -73 6 0 10 27 10 60 0 59 1 61 33 75 l32
14 -42 -2 -43 -1 0 -73z"/>
<path d="M6191 924 c2 -5 15 -40 29 -77 14 -37 29 -67 35 -67 11 0 69 140 61
148 -5 5 -33 -58 -42 -95 -10 -39 -29 -26 -48 32 -9 30 -22 57 -28 61 -6 4 -9
3 -7 -2z"/>
<path d="M6370 910 c-24 -24 -26 -77 -4 -108 20 -29 83 -31 109 -2 10 11 13
20 8 20 -6 0 -16 -7 -23 -15 -19 -23 -66 -19 -84 7 -9 12 -16 26 -16 30 0 4
30 8 68 10 61 3 67 5 64 23 -10 54 -82 75 -122 35z m94 -9 c10 -11 16 -24 13
-28 -5 -8 -106 -7 -114 0 -1 2 4 13 13 25 19 28 65 29 88 3z"/>
<path d="M6523 918 c54 -128 57 -138 47 -164 -6 -15 -8 -29 -6 -32 3 -3 9 4
13 14 4 10 22 57 40 103 37 97 37 122 -1 37 -14 -32 -30 -55 -35 -52 -5 3 -17
28 -27 56 -10 27 -22 50 -27 50 -5 0 -7 -6 -4 -12z"/>
<path d="M7232 907 c-47 -50 -15 -127 51 -127 21 0 41 8 52 20 10 11 13 20 8
20 -6 0 -13 -7 -17 -15 -7 -18 -67 -20 -84 -3 -7 7 -12 20 -12 30 0 15 9 18
65 18 56 0 65 2 65 18 0 28 -42 62 -76 62 -19 0 -39 -9 -52 -23z m93 -3 c9 -9
14 -21 13 -26 -5 -14 -101 -15 -105 -1 -6 17 26 43 52 43 13 0 31 -7 40 -16z"/>
<path d="M7412 921 c-8 -4 -12 -19 -10 -32 2 -18 14 -27 47 -39 24 -8 46 -21
49 -29 10 -31 -59 -42 -90 -14 -20 18 -25 4 -6 -15 17 -17 83 -15 98 3 21 25
7 49 -40 65 -47 16 -64 45 -34 57 9 3 30 1 46 -5 25 -9 28 -9 18 4 -14 15 -57
19 -78 5z"/>
<path d="M7570 910 c-24 -24 -26 -77 -4 -108 20 -29 83 -31 109 -2 10 11 13
20 8 20 -6 0 -16 -7 -23 -15 -19 -23 -66 -19 -84 7 -9 12 -16 26 -16 30 0 4
30 8 68 10 61 3 67 5 64 23 -8 51 -84 73 -122 35z m95 -10 c23 -25 15 -33 -32
-33 -58 1 -63 2 -63 16 0 39 65 50 95 17z"/>
<path d="M7751 904 c-12 -15 -21 -35 -21 -46 0 -22 18 -60 34 -70 18 -12 71
-9 84 4 10 10 15 10 22 -2 7 -10 10 11 10 65 0 48 -4 75 -9 66 -6 -10 -13 -11
-29 -2 -35 19 -69 13 -91 -15z m98 -10 c25 -32 26 -52 5 -82 -20 -29 -79 -31
-94 -3 -40 76 38 150 89 85z"/>
<path d="M7942 907 c-28 -30 -29 -80 -2 -107 35 -35 120 -19 120 23 0 6 -7 1
-16 -11 -18 -26 -75 -30 -94 -6 -19 22 -16 70 5 94 24 26 59 25 85 -2 11 -12
20 -17 20 -11 0 19 -37 43 -67 43 -18 0 -38 -9 -51 -23z"/>
<path d="M4828 599 c-10 -5 -18 -19 -18 -30 0 -11 -7 -22 -15 -25 -14 -6 -14
-8 -1 -18 10 -7 17 -33 19 -71 l3 -60 2 68 c2 56 5 67 20 67 16 1 16 1 0 11
-22 12 -24 49 -3 49 8 0 15 5 15 10 0 12 0 12 -22 -1z"/>
<path d="M5240 500 l0 -100 59 0 c76 0 111 28 111 90 0 79 -31 109 -112 110
l-58 0 0 -100z m123 70 c31 -24 42 -66 27 -105 -15 -40 -38 -54 -87 -55 l-43
0 0 90 0 90 39 0 c23 0 48 -8 64 -20z"/>
<path d="M5970 500 c0 -60 4 -100 10 -100 6 0 10 40 10 100 0 60 -4 100 -10
100 -6 0 -10 -40 -10 -100z"/>
<path d="M7040 577 c0 -13 -5 -28 -12 -35 -9 -9 -9 -12 0 -12 8 0 12 -19 12
-54 0 -57 17 -87 48 -85 13 0 11 3 -5 11 -20 10 -23 19 -23 70 0 53 2 58 23
59 l22 0 -22 9 c-16 6 -23 18 -23 35 0 14 -4 25 -10 25 -5 0 -10 -10 -10 -23z"/>
<path d="M1132 512 l-92 -66 72 -73 c40 -40 76 -73 80 -73 6 0 105 133 131
176 7 12 -74 104 -90 104 -4 -1 -50 -31 -101 -68z"/>
<path d="M4912 540 c-46 -19 -52 -105 -9 -135 77 -54 159 54 92 120 -25 26
-45 30 -83 15z m58 -10 c50 -27 49 -100 -1 -120 -42 -18 -79 8 -79 53 0 42 18
66 58 76 2 1 12 -4 22 -9z"/>
<path d="M5105 540 c-4 -6 -15 -8 -26 -5 -17 6 -19 1 -19 -64 0 -41 4 -71 10
-71 6 0 10 24 10 54 0 48 3 57 28 75 15 11 22 21 15 21 -6 0 -15 -5 -18 -10z"/>
<path d="M5475 525 c-54 -53 -12 -145 59 -131 31 7 56 23 56 38 0 5 -13 -1
-29 -13 -26 -19 -33 -20 -60 -10 -30 13 -46 35 -35 52 3 5 34 9 70 9 35 0 64
2 64 5 0 18 -26 55 -47 64 -36 16 -51 14 -78 -14z m93 -7 c29 -24 13 -38 -43
-38 -47 0 -55 3 -55 18 0 36 62 48 98 20z"/>
<path d="M5823 540 c-47 -19 -57 -87 -18 -125 13 -14 35 -25 47 -25 26 0 68
25 68 41 0 5 -14 -1 -31 -13 -28 -21 -32 -21 -57 -7 -15 8 -28 25 -30 37 -3
21 0 22 62 22 75 0 84 13 41 55 -25 26 -45 30 -82 15z m65 -16 c40 -28 28 -44
-33 -44 -41 0 -55 4 -55 14 0 16 37 46 55 46 6 0 21 -7 33 -16z"/>
<path d="M6055 525 c-16 -15 -25 -36 -25 -55 0 -38 39 -80 75 -80 33 0 75 41
75 74 0 38 -10 55 -41 71 -39 21 -56 19 -84 -10z m86 -3 c15 -13 22 -30 22
-52 0 -34 -30 -70 -60 -70 -21 0 -63 46 -63 70 0 24 42 70 63 70 8 0 25 -8 38
-18z"/>
<path d="M6270 540 c-8 -5 -23 -7 -32 -4 -16 5 -18 -4 -18 -95 0 -61 4 -101
10 -101 6 0 10 16 10 35 0 38 2 40 32 24 45 -24 98 13 98 69 0 43 -7 55 -37
71 -26 13 -43 14 -63 1z m55 -12 c49 -22 44 -103 -8 -121 -21 -7 -34 -5 -53 8
-21 14 -25 23 -22 58 2 33 8 44 28 54 30 15 24 15 55 1z"/>
<path d="M6451 541 c-8 -5 -20 -7 -28 -4 -10 4 -13 -11 -13 -66 0 -41 4 -71
10 -71 6 0 10 27 10 60 0 48 4 61 19 70 25 13 27 13 45 -6 10 -10 17 -36 17
-72 l2 -57 6 58 c8 70 31 96 65 73 16 -10 22 -28 27 -77 l6 -64 1 66 c2 53 -2
69 -16 82 -22 20 -36 21 -62 5 -16 -10 -24 -10 -40 0 -23 14 -30 15 -49 3z"/>
<path d="M6685 525 c-16 -15 -25 -36 -25 -55 0 -37 39 -80 72 -80 26 0 68 25
68 41 0 5 -14 -1 -31 -13 -28 -21 -32 -21 -57 -7 -15 8 -28 25 -30 37 -3 21 0
22 62 22 53 0 66 3 66 15 0 25 -47 65 -75 65 -14 0 -37 -11 -50 -25z m93 -8
c29 -23 13 -37 -44 -37 -47 0 -55 3 -52 17 7 36 61 47 96 20z"/>
<path d="M6900 539 c-12 -9 -12 -10 4 -5 10 4 29 0 42 -9 19 -12 24 -25 27
-77 l3 -63 2 67 c2 59 -1 69 -20 82 -26 19 -38 20 -58 5z"/>
<path d="M5650 473 c15 -38 34 -68 40 -68 13 0 62 113 57 130 -2 5 -14 -18
-27 -52 -12 -35 -26 -63 -30 -63 -4 0 -18 27 -30 60 -12 33 -26 60 -31 60 -4
0 5 -30 21 -67z"/>
<path d="M6850 471 c0 -84 19 -98 22 -16 0 30 1 60 2 67 1 6 -5 13 -11 16 -10
3 -13 -15 -13 -67z"/>
</g>
</svg>
